<svg version="1.1" xmlns="http://www.w3.org/2000/svg" width="48" height="48" viewBox="0 0 512 512" fill="#db4437">
    <title>G-Plus</title>
    <path d="M256 0c-141.4 0-256 114.6-256 256s114.6 256 256 256 256-114.6 256-256-114.6-256-256-256zM192 384c-70.8 0-128-57.2-128-128s57.2-128 128-128c34.6 0 63.5 12.6 85.8 33.5l-34.8 33.4c-9.5-9.1-26.1-19.7-51-19.7-43.7 0-79.4 36.2-79.4 80.8s35.7 80.8 79.4 80.8c50.7 0 69.7-36.4 72.6-55.2h-72.6v-43.9h120.9c1.1 6.4 2 12.8 2 21.2 0 73.2-49 125.1-122.9 125.1zM416 256v32h-32v-32h-32v-32h32v-32h32v32h32v32h-32z"/>
</svg>
